<?xml version="1.0" encoding="UTF-8"?><!DOCTYPE svg PUBLIC "-//W3C//DTD SVG 1.1//EN" "http://www.w3.org/Graphics/SVG/1.1/DTD/svg11.dtd"><svg xmlns="http://www.w3.org/2000/svg"><symbol id="smile" viewBox="0 0 46.47 46.469">
    <path d="M29.062 9.086c0-4.797 3.904-8.7 8.703-8.7 4.797 0 8.7 3.902 8.7 8.7 0 1.38-1.118 2.5-2.5 2.5s-2.5-1.12-2.5-2.5c0-2.04-1.66-3.7-3.7-3.7-2.042 0-3.703 1.66-3.703 3.7 0 1.38-1.12 2.5-2.5 2.5s-2.5-1.12-2.5-2.5zM1.34 9.06C1.34 4.26 5.242.357 10.04.357c4.797 0 8.7 3.903 8.7 8.7 0 1.382-1.118 2.5-2.5 2.5-1.38 0-2.5-1.118-2.5-2.5 0-2.04-1.66-3.7-3.7-3.7-2.042 0-3.703 1.66-3.703 3.7 0 1.382-1.12 2.5-2.5 2.5s-2.5-1.118-2.5-2.5zM.23 31.41c-.636-1.53.09-3.286 1.62-3.92.376-.157.766-.23 1.15-.23 1.176 0 2.292.695 2.77 1.85 2.778 6.685 9.656 11.004 17.524 11.004 7.69 0 14.528-4.32 17.42-11.01.66-1.522 2.425-2.224 3.944-1.564 1.52.658 2.22 2.423 1.563 3.944-3.84 8.886-12.84 14.628-22.926 14.628-10.3 0-19.354-5.77-23.064-14.702z"/>
</symbol></svg>